<?xml version="1.0" standalone="no"?>
<!DOCTYPE svg PUBLIC "-//W3C//DTD SVG 20010904//EN"
 "http://www.w3.org/TR/2001/REC-SVG-20010904/DTD/svg10.dtd">
<svg version="1.0" xmlns="http://www.w3.org/2000/svg"
 width="100.000000pt" height="100.000000pt" viewBox="0 0 100.000000 100.000000"
 preserveAspectRatio="xMidYMid meet">
<metadata>
Created by potrace 1.14, written by Peter Selinger 2001-2017
</metadata>
<g transform="translate(0.000000,100.000000) scale(0.100000,-0.100000)"
fill="#000000" stroke="none">
<path d="M0 500 l0 -500 500 0 500 0 0 500 0 500 -500 0 -500 0 0 -500z m230
110 l0 -140 -60 0 -60 0 0 -80 0 -80 60 0 60 0 0 -30 0 -30 -90 0 -90 0 0 140
0 140 60 0 60 0 0 80 0 80 -60 0 -60 0 0 30 0 30 90 0 90 0 0 -140z m240 -110
l0 -250 -90 0 -90 0 0 250 0 250 90 0 90 0 0 -250z m120 140 l0 -110 30 0 30
0 0 110 0 110 30 0 30 0 0 -250 0 -250 -30 0 -30 0 0 110 0 110 -60 0 -60 0 0
140 0 140 30 0 30 0 0 -110z m360 -140 l0 -250 -90 0 -90 0 0 250 0 250 90 0
90 0 0 -250z"/>
<path d="M350 500 l0 -190 30 0 30 0 0 190 0 190 -30 0 -30 0 0 -190z"/>
<path d="M830 610 l0 -80 30 0 30 0 0 80 0 80 -30 0 -30 0 0 -80z"/>
<path d="M830 390 l0 -80 30 0 30 0 0 80 0 80 -30 0 -30 0 0 -80z"/>
</g>
</svg>
